PathFileType	4	(X/Y/Z)	C:\Users\Basilio\Documents\Thesis Gigler\squatting_fais\c3dfiles\047\SLS_pre_front4\markers_experimental.trc
DataRate	CameraRate	NumFrames	NumMarkers	Units	OrigDataRate	OrigDataStartFrame	OrigNumFrames
200.000000	200.000000	4	60	mm	200.000000	1228	1404
Frame#	Time	FHD			LBHD			RBHD			C7			T10			CLAV			LSHO			LUUPA			LMUPA			LDUPA			LLEP			LMEP			LRAD			LUL			LRFIN			RSHO			RUPA1			RMUPA			RDUPA			RLEP			RMEP			RRAD			RUL			RUFIN			LASI			RASI			USACR			LSACR			RSACR			LTHI1			LTHI2			LTHI3			LTHI4			LLFC			LMFC			LTIB1			LTIB2			LTIB3			LTIB4			LLMAL			LMMAL			LMT1			LMT2			LMT5			RTHI			RTHI2			RTHI3			RTHI4			RLFC			RMFC			RTIB1			RTIB2			RTIB3			RTIB4			RLMAL			RMMAL			RHEE			RMT1			RMT2			RMT5			
		X1	Y1	Z1	X2	Y2	Z2	X3	Y3	Z3	X4	Y4	Z4	X5	Y5	Z5	X6	Y6	Z6	X7	Y7	Z7	X8	Y8	Z8	X9	Y9	Z9	X10	Y10	Z10	X11	Y11	Z11	X12	Y12	Z12	X13	Y13	Z13	X14	Y14	Z14	X15	Y15	Z15	X16	Y16	Z16	X17	Y17	Z17	X18	Y18	Z18	X19	Y19	Z19	X20	Y20	Z20	X21	Y21	Z21	X22	Y22	Z22	X23	Y23	Z23	X24	Y24	Z24	X25	Y25	Z25	X26	Y26	Z26	X27	Y27	Z27	X28	Y28	Z28	X29	Y29	Z29	X30	Y30	Z30	X31	Y31	Z31	X32	Y32	Z32	X33	Y33	Z33	X34	Y34	Z34	X35	Y35	Z35	X36	Y36	Z36	X37	Y37	Z37	X38	Y38	Z38	X39	Y39	Z39	X40	Y40	Z40	X41	Y41	Z41	X42	Y42	Z42	X43	Y43	Z43	X44	Y44	Z44	X45	Y45	Z45	X46	Y46	Z46	X47	Y47	Z47	X48	Y48	Z48	X49	Y49	Z49	X50	Y50	Z50	X51	Y51	Z51	X52	Y52	Z52	X53	Y53	Z53	X54	Y54	Z54	X55	Y55	Z55	X56	Y56	Z56	X57	Y57	Z57	X58	Y58	Z58	X59	Y59	Z59	X60	Y60	Z60	

1229	6.140000000000001	-200.802719116211	1750.036865234375	-1020.849792480469	-376.5578613281251	1706.6318359375	-1050.896606445313	-353.6720581054688	1698.161743164063	-904.2171020507815	-388.6117553710939	1516.139526367188	-998.9570922851565	-382.0872497558594	1210.431030273438	-1016.352416992188	-232.1328277587891	1486.4599609375	-1035.92529296875	-331.1779479980469	1525.289184570313	-1165.835693359375	-259.4475402832032	1500.6220703125	-1318.841430664063	-241.283676147461	1545.28173828125	-1307.595581054688	-204.2982635498047	1528.072631835938	-1351.549194335938	-154.3806762695313	1566.026000976563	-1375.609619140625	-100.1398849487305	1513.812744140625	-1344.630981445313	93.94459533691408	1668.23974609375	-1387.601684570313	68.27745056152345	1690.781860351563	-1456.026000976563	148.0748901367188	1731.799560546875	-1402.774291992188	-276.6648864746094	1512.834350585938	-878.152282714844	-144.9860382080078	1454.534423828125	-766.3638305664064	-120.7714767456055	1494.6845703125	-783.2380371093752	-76.23954010009767	1461.679809570313	-759.1226196289064	-10.80125904083252	1484.454467773438	-761.0317993164064	8.52065944671631	1422.418090820313	-811.049743652344	254.7048492431641	1512.61376953125	-804.527282714844	240.9941558837891	1526.264770507813	-732.3139648437501	330.1429138183594	1541.976196289063	-787.183044433594	-219.6752319335938	982.2050781250002	-1124.679809570313	-204.7152404785157	1008.946655273438	-897.546569824219	-394.3656311035157	1081.002197265625	-1013.641357421875	-397.7388305664064	1047.850341796875	-1040.051391601563	-398.5772399902345	1053.086059570313	-981.3801879882815	-309.9227905273438	821.8432617187502	-1182.3408203125	-273.1156921386719	745.7746582031251	-1180.560668945313	-224.2509307861329	750.9656372070314	-1170.774047851563	-300.3830871582032	691.6537475585939	-1168.671020507813	-313.3078918457032	522.6620483398439	-1122.558349609375	-280.9645080566407	519.9327392578126	-1003.50048828125	-280.2426147460938	343.2231750488282	-1018.659729003906	-287.4981079101563	291.5511779785157	-1088.703979492188	-271.6284179687501	292.5554809570313	-1043.034057617188	-284.6699523925782	218.3235168457032	-1009.5732421875	-332.6145629882813	118.3062286376953	-1049.0693359375	-313.9420471191407	135.311279296875	-962.547790527344	-190.8941802978516	61.26038742065431	-976.924499511719	-188.7692108154297	59.24599456787111	-1021.808410644531	-236.6932220458985	46.69117736816407	-1067.354125976563	-213.2729034423829	852.7369384765627	-797.4145507812502	-149.2005615234375	835.4471435546877	-803.4448242187502	-127.0612030029297	856.220153808594	-815.9002685546877	-117.7101974487305	758.3107910156251	-805.5528564453127	-19.82879066467286	650.7383422851564	-829.2920532226565	-9.000182151794435	650.2907104492189	-952.7106933593752	70.00662994384767	554.8341064453126	-854.0911254882815	57.3588218688965	456.2005004882814	-806.839294433594	93.3061981201172	474.2820739746095	-830.0098266601565	118.4555053710938	434.2870178222657	-864.804626464844	132.3561096191407	275.2755737304688	-827.4864501953127	138.1749114990235	291.3178100585938	-917.6215820312502	81.59654998779298	224.5026245117188	-870.215515136719	284.3026123046876	258.3548889160157	-920.924987792969	291.9567871093751	268.2433776855469	-876.905456542969	261.3756408691407	235.8576202392579	-813.8966064453127	
1230	6.145	-200.8569793701172	1749.998779296875	-1021.514770507813	-376.6724853515626	1706.659057617188	-1051.232543945313	-354.3477783203126	1698.045532226563	-903.8103637695315	-389.2041320800782	1516.189697265625	-999.1047973632815	-382.9597167968751	1210.05712890625	-1016.449157714844	-232.6059265136719	1486.403442382813	-1036.232666015625	-331.0523986816407	1525.07763671875	-1166.3701171875	-259.6492614746094	1500.34228515625	-1319.181030273438	-241.4439544677735	1544.810302734375	-1307.88916015625	-204.4223785400391	1527.7333984375	-1351.735473632813	-154.3594818115235	1565.5947265625	-1375.844604492188	-100.2593994140625	1513.347534179688	-1344.802368164063	93.83031463623048	1667.432861328125	-1387.573486328125	68.43218231201173	1690.023071289063	-1456.181518554688	148.4434051513672	1730.7890625	-1402.840209960938	-277.1243591308594	1512.80419921875	-878.4499511718752	-145.4865264892578	1454.389404296875	-766.5142211914064	-121.0680084228516	1494.54833984375	-783.4902954101565	-76.50011444091798	1461.621215820313	-759.4375000000001	-11.16121578216553	1484.387329101563	-761.3709106445314	8.281741142272951	1422.009521484375	-810.8205566406252	254.6347656250001	1511.888916015625	-804.7321777343752	240.4215240478516	1525.862915039063	-732.3167114257814	329.7809448242188	1541.576293945313	-787.165710449219	-219.7564697265626	982.2565917968752	-1124.740356445313	-204.8821716308594	1008.922607421875	-897.6680297851565	-394.6051330566407	1080.943603515625	-1013.742797851563	-397.9731750488282	1047.696533203125	-1040.191162109375	-398.8479919433595	1052.903076171875	-981.4824218750002	-310.0649108886719	821.940612792969	-1182.4140625	-273.2373657226563	745.8190307617189	-1180.605590820313	-224.3346862792969	750.9369506835939	-1170.788208007813	-300.4511413574219	691.6824340820314	-1168.697265625	-313.3576965332032	522.6799316406251	-1122.6474609375	-280.9764404296876	519.9485473632814	-1003.557739257813	-280.1478881835938	343.2229614257813	-1018.839538574219	-287.6131896972657	291.4732360839844	-1088.894409179688	-271.6437683105469	292.5782470703126	-1043.149536132813	-284.8381958007813	218.0705718994141	-1008.973022460938	-332.6947631835938	118.3007354736328	-1049.129516601563	-313.8145446777344	135.3399963378907	-962.576599121094	-190.9065093994141	61.20366287231447	-976.958190917969	-188.7561645507813	59.80952835083009	-1021.713073730469	-236.7279510498047	46.67081451416016	-1067.414184570313	-213.2775268554688	852.7437133789065	-797.5904541015627	-149.193359375	835.5200805664065	-803.7178344726565	-127.0636749267578	856.291198730469	-816.0712890625002	-117.6985473632813	758.3226318359376	-805.5592041015627	-19.83347511291504	650.7122192382814	-829.245056152344	-7.412425994873049	650.5567626953126	-952.8916625976565	70.0289764404297	554.9679565429689	-854.3304443359377	57.40612030029298	456.2185058593751	-807.116394042969	93.4020462036133	474.3586425781251	-830.276550292969	118.4909820556641	434.4151306152345	-865.0506591796877	132.4102783203125	275.3810119628907	-827.729675292969	138.4098205566407	291.5270385742188	-918.035339355469	81.93269348144533	223.9099273681641	-870.8175048828127	284.2115783691407	258.3341369628907	-920.9976196289065	291.8678894042969	268.4082946777344	-877.0621337890627	261.4523010253907	236.2726745605469	-814.1131591796877	
1231	6.15	-201.0763549804688	1749.729125976563	-1021.820495605469	-376.7161254882813	1706.72509765625	-1051.6669921875	-354.1629028320313	1698.285888671875	-905.0833129882815	-389.5560302734376	1516.1572265625	-999.4635009765627	-383.2676391601563	1209.9755859375	-1016.651306152344	-232.9968872070313	1486.31396484375	-1036.502197265625	-331.0655822753907	1524.951171875	-1166.76611328125	-259.8173217773438	1500.139038085938	-1319.51708984375	-241.8876495361329	1545.09814453125	-1308.374877929688	-204.4486846923829	1527.401000976563	-1351.895874023438	-154.2712097167969	1565.0869140625	-1375.992431640625	-100.611686706543	1512.830200195313	-1344.91650390625	93.93289184570314	1666.739624023438	-1387.566772460938	68.56933593750001	1689.430419921875	-1456.44482421875	148.257064819336	1729.793701171875	-1403.055541992188	-277.4335937500001	1512.7900390625	-878.7952880859377	-145.9588470458985	1454.387573242188	-766.7011108398439	-121.4007415771485	1494.508544921875	-783.7864990234377	-76.94002532958986	1461.548095703125	-759.7659301757814	-11.56124591827393	1484.184936523438	-761.6365966796876	7.889749526977541	1421.986206054688	-811.0587158203127	253.9940795898438	1511.556274414063	-804.756286621094	239.9713897705079	1525.8330078125	-732.5745849609376	329.4305419921876	1541.146484375	-787.267272949219	-220.8909301757813	982.2857666015627	-1124.8505859375	-205.0441894531251	1009.011535644531	-897.6245727539065	-394.980682373047	1080.845581054688	-1013.850646972656	-398.4872131347657	1047.641235351563	-1040.26416015625	-399.0662231445314	1052.725341796875	-981.6047363281252	-310.2269897460938	821.988952636719	-1182.450439453125	-273.2953186035157	745.7859497070314	-1180.640747070313	-224.4203643798829	750.9858398437501	-1170.878662109375	-300.5327148437501	691.7291259765626	-1168.758422851563	-313.3604125976563	522.7114257812501	-1122.735107421875	-281.2985229492188	519.7462768554689	-1002.702575683594	-280.0318908691407	343.1723327636719	-1019.107299804688	-287.6520080566407	291.5232238769532	-1088.967041015625	-271.6138916015626	292.4208068847657	-1043.189208984375	-284.8402099609376	218.0923919677735	-1009.092590332031	-332.6910400390626	118.2728424072266	-1049.21484375	-313.7143859863282	135.3961486816407	-962.7237548828127	-190.8349914550782	61.25714111328126	-976.9686279296877	-188.8787384033203	59.20754241943361	-1021.896057128906	-236.7410888671876	46.56340789794923	-1067.496826171875	-213.2740020751954	852.7680664062502	-797.6824340820315	-149.1767730712891	835.5411376953127	-803.902526855469	-127.0909881591797	856.3084106445315	-816.153991699219	-117.6167297363282	758.4182739257814	-805.6460571289065	-19.88217163085938	650.7718505859376	-829.4489746093752	-9.148438453674318	650.4421386718751	-953.1107177734377	69.98199462890626	554.9674682617189	-854.1883544921877	57.541561126709	456.3306884765626	-807.4031982421877	93.44122314453126	474.4426879882814	-830.4183349609377	118.5470886230469	434.5488586425782	-865.296813964844	132.5287170410157	275.4726257324219	-827.978210449219	138.6851196289063	291.7104187011719	-918.453063964844	81.61119842529298	224.5172729492188	-870.5579223632815	284.2426147460938	258.4606933593751	-921.443786621094	292.0010681152344	268.6965026855469	-877.6077880859377	261.4678039550782	236.3316650390626	-814.469665527344	
1232	6.155	-201.2691497802735	1749.318969726563	-1022.151184082031	-376.9156799316407	1706.697509765625	-1052.147705078125	-354.5900268554688	1698.226806640625	-905.1857910156252	-390.0924072265626	1516.109497070313	-999.8055419921877	-383.7341308593751	1209.9208984375	-1016.775512695313	-233.4547119140626	1486.205200195313	-1036.768310546875	-331.2859191894532	1524.712768554688	-1167.095336914063	-260.0081787109376	1499.889282226563	-1319.800903320313	-241.4344940185547	1544.205078125	-1308.487548828125	-204.5521697998047	1527.108520507813	-1352.12060546875	-154.2079772949219	1564.5693359375	-1376.158203125	-100.7359237670899	1512.519165039063	-1345.24609375	93.72524261474611	1665.932861328125	-1387.3544921875	68.64971160888673	1688.704833984375	-1456.731689453125	148.5605010986328	1729.143676757813	-1403.261596679688	-278.0193481445313	1512.822021484375	-878.9598388671877	-146.3605041503907	1454.481323242188	-766.9508056640626	-122.0121688842774	1494.606567382813	-783.988220214844	-77.44460296630861	1461.42138671875	-759.9755249023439	-12.09254169464112	1484.068359375	-761.9852294921876	7.304408550262453	1421.8662109375	-810.8421020507815	253.6180267333985	1511.206298828125	-804.8457641601565	239.4624328613282	1525.210571289063	-732.4849853515626	329.0055236816407	1540.710693359375	-787.3179321289065	-221.0137939453126	982.3316650390627	-1124.845703125	-205.0957489013672	1009.269592285156	-897.8914184570315	-395.2285156250001	1080.683349609375	-1013.874084472656	-398.8452148437501	1047.454833984375	-1040.381225585938	-399.2981872558595	1052.51123046875	-981.6447753906252	-310.4662475585938	822.074645996094	-1182.4892578125	-273.4151916503907	745.8675537109376	-1180.731201171875	-224.4746704101563	751.1179199218751	-1170.943237304688	-300.5895385742188	691.7968750000001	-1168.783203125	-313.4316101074219	522.6746826171876	-1122.80224609375	-281.2558288574219	519.7443237304689	-1002.729675292969	-279.9090270996094	343.1571350097657	-1019.365173339844	-287.8080139160157	291.5976867675782	-1088.980224609375	-271.5512390136719	292.3171997070313	-1043.297729492188	-284.8120117187501	218.0681610107422	-1009.357116699219	-332.8148498535157	118.3048782348633	-1049.288330078125	-313.5067749023438	135.7806701660157	-962.9796142578127	-191.0342407226563	61.25706481933595	-977.0928955078127	-188.872543334961	59.75754165649415	-1021.8193359375	-236.8709411621094	46.48600769042969	-1067.591552734375	-213.2872009277344	852.7364501953127	-797.6578369140627	-149.1249389648438	835.599304199219	-804.1284179687502	-127.1425247192383	856.3118896484377	-816.2485351562502	-117.5407257080078	758.4552001953126	-805.9360961914065	-19.88515090942383	650.8302001953126	-829.5130615234377	-8.517914772033693	650.5591430664064	-953.468933105469	70.24511718750001	555.1146850585939	-854.624694824219	57.62996673583986	456.3220214843751	-807.6970214843752	93.59573364257814	474.4292602539064	-830.7440185546877	118.6008987426758	434.4754943847657	-865.3908691406252	132.3178405761719	275.2307434082032	-828.8492431640627	138.6958160400391	291.7879333496094	-918.7000732421877	81.99922943115236	223.9779205322266	-871.1208496093752	284.5332641601563	258.5256652832032	-921.7554931640627	291.8759460449219	268.5973510742188	-877.5026855468752	261.5999145507813	236.309555053711	-814.7475585937502	
